<svg
  width="100"
  height="80"
  viewBox="0 0 100 80"
  fill="none"
  xmlns="http://www.w3.org/2000/svg"
>
  <path
    d="M13.0012 71.0491C12.8452 71.0491 12.6872 71.0121 12.5392 70.9351C12.0502 70.6801 11.8602 70.0761 12.1152 69.5861C12.5432 68.7661 22.7262 49.4941 34.1172 48.2821C37.9692 47.8721 41.4782 49.5451 44.5552 53.2511C45.6982 54.6281 47.3522 56.2081 48.7132 55.8891C51.4102 55.2671 53.1532 48.1411 54.4262 42.9371C55.7632 37.4741 56.6462 33.8651 58.7722 33.8251C60.3312 33.8041 61.8462 35.5511 64.3582 44.3681C64.7852 45.8681 65.1542 46.0831 65.1582 46.0851C65.9792 45.8921 67.9462 41.9221 69.2472 39.2961C71.7922 34.1581 74.1982 29.2991 77.1642 29.2991C77.2162 29.2991 77.2682 29.3011 77.3202 29.3041C79.5162 29.4301 80.7262 32.1041 81.4462 34.1041C82.5842 37.2711 83.3042 38.0421 83.5342 38.2211C84.2412 37.5911 85.0932 34.0241 85.5582 32.0741C85.8102 31.0201 86.0582 29.9811 86.3152 29.0651C86.4642 28.5341 87.0192 28.2261 87.5482 28.3731C88.0792 28.5221 88.3902 29.0751 88.2402 29.6061C87.9892 30.4981 87.7482 31.5111 87.5032 32.5391C86.3772 37.2561 85.5882 40.1521 83.6452 40.2601C82.1402 40.3391 80.9912 38.7541 79.5632 34.7821C78.4242 31.6131 77.4702 31.3171 77.2052 31.3021C77.1892 31.3011 77.1742 31.3011 77.1582 31.3011C75.4392 31.3011 72.7952 36.6411 71.0392 40.1851C68.4842 45.3411 66.9362 48.2571 64.9272 48.0651C63.4582 47.9311 62.8022 46.2041 62.4352 44.9171C60.3332 37.5371 59.1782 36.1331 58.8212 35.8671C58.0512 36.5431 57.0843 40.4971 56.3713 43.4131C54.8203 49.7541 53.0612 56.9401 49.1642 57.8381C47.2422 58.2801 45.2332 57.1971 43.0182 54.5281C40.3592 51.3241 37.5202 49.9311 34.3312 50.2711C24.0012 51.3681 13.9882 70.3211 13.8892 70.5121C13.7102 70.8541 13.3612 71.0491 13.0012 71.0491Z"
    fill="white"
  />
  <path
    d="M12.2606 72.3479C12.1046 72.3479 11.9476 72.3109 11.8056 72.2379C11.5146 72.0899 11.3156 71.8079 11.2706 71.4859L10.3436 64.8099C10.2676 64.2629 10.6496 63.7579 11.1966 63.6819C11.7456 63.6029 12.2486 63.9879 12.3246 64.5349L13.0546 69.7969L18.0986 67.1269C18.5886 66.8669 19.1926 67.0559 19.4506 67.5429C19.7096 68.0309 19.5226 68.6359 19.0346 68.8949L12.7286 72.2329C12.5816 72.3089 12.4216 72.3479 12.2606 72.3479Z"
    fill="white"
  />
</svg>