<svg
  width="99"
  height="29"
  id="next-step"
  viewBox="0 0 99 29"
  fill="none"
  xmlns="http://www.w3.org/2000/svg"
>
  <path
    d="M1.03234 25.1789C1.16187 25.3881 1.79632 25.291 2.0381 24.9654ZM1.03234 25.1789C0.704704 24.9716 0.609284 24.5409 0.816697 24.2168M1.03234 25.1789M0.817226 24.2159C1.00068 23.928 3.39707 20.2246 7.34185 16.3986C11.2951 12.5644 16.7449 8.66414 23.0332 7.88026M0.817226 24.2159M23.0332 7.88025C28.8983 7.14863 34.5464 9.25411 39.853 14.2312C49.4107 23.1963 61.4413 26.7397 72.8522 23.8954M72.8523 23.8954C83.1988 21.3147 91.1627 13.8074 94.7048 3.32364C94.8288 2.95672 95.227 2.75806 95.5952 2.88309M72.8523 23.8954M95.5971 2.88372C95.9658 3.00728 96.1622 3.40388 96.0392 3.76856C92.3339 14.7343 84.0072 22.5546 73.1952 25.2505M95.5971 2.88372M73.1951 25.2506C70.5796 25.9033 67.9063 26.2222 65.2237 26.2222C55.9251 26.2222 46.4947 22.3841 38.8859 15.2471M73.1951 25.2506M38.8859 15.2471C33.9648 10.6309 28.6778 8.57908 23.2075 9.26615M38.8859 15.2471M23.2075 9.26615C17.1518 10.0216 11.8648 13.9481 8.11215 17.6399M23.2075 9.26615M8.11215 17.6399C4.35153 21.3395 2.06368 24.8712 2.00395 24.9652Z"
    stroke="url(#linear-main)"
  />
  <path
    d="M96.8945 8.23629L96.8944 8.23557L96.1374 3.001L96.0551 2.43176L95.5028 2.59248L89.9221 4.21667L89.9212 4.21695C89.5483 4.32624 89.1577 4.11254 89.0478 3.74159C88.9401 3.37383 89.151 2.98532 89.5257 2.87525C89.5258 2.87521 89.5259 2.87517 89.5261 2.87513L96.4371 0.86282L96.4382 0.862482C96.6327 0.805342 96.8441 0.835685 97.0168 0.94637C97.1879 1.05603 97.3025 1.23417 97.3322 1.43432C97.3323 1.43455 97.3323 1.43478 97.3323 1.435L98.2865 8.03467L98.2866 8.03501C98.3417 8.41451 98.0771 8.77025 97.6917 8.82498L97.6917 8.82488L97.6817 8.8265C97.6478 8.83201 97.6169 8.8344 97.5887 8.8344C97.2429 8.8344 96.9439 8.58109 96.8945 8.23629Z"
    stroke="url(#linear-main)"
  />
  <defs>
    <linearGradient
      id="linear-main"
      gradientTransform="rotate(45)"
    >
      <stop stop-color="#DF55AD" />
      <stop
        offset="38.4587%"
        stop-color="#E57582"
      />
      <stop
        offset="70.3384%"
        stop-color="#ED9F5A"
      />
      <stop
        offset="100%"
        stop-color="#F1D872"
      />
    </linearGradient>
  </defs>
</svg>