<svg
  width="156"
  height="200"
  viewBox="0 0 156 200"
  fill="none"
  xmlns="http://www.w3.org/2000/svg"
>
  <path
    d="M38.4771 0.997381L39.4743 0L46.9411 3.28421L47.6221 4.28159L47.5734 8.00384L49.0084 9.63377L55.2105 8.32012L68.3442 10.6799L95.2198 28.2447L98.3087 32.9156L98.6492 34.9835L97.2385 39.6302L99.0869 46.0528L105.192 57.0004L105.824 59.7494L104.657 62.4984L112.415 65.7097L113.607 67.948L114.993 76.0005L114.969 85.537L116.258 88.2374L118.253 90.3783L120.369 91.2784L125.817 91.4243L132.748 93.7355L136.81 93.5652L137.564 96.6549L139.34 96.5089L139.875 97.2144L144.423 111.714L147.731 115.436L151.379 116.75L152.036 119.791L153.106 129.619L156 136.48L150.455 139.618L149.53 141.199L147.682 141.808L146.563 143.778L144.423 145.36L142.185 143.754L133.113 148.814L135.205 151.295L132.846 155.31L136.616 171.901L137.126 172.801L139.461 172.436L139.85 173.142L138.634 176.718L134.451 177.448L132.335 175.331L127.762 175.259L125.33 177.789L124.138 177.545L123.433 178.202L123.579 181.024L121.001 183.287L121.414 186.084L119.542 186.741L113.85 186.06L108.767 182.119L106.87 182.97L105.97 184.406L105.362 183.579L102.273 183.798L99.1843 182.192L95.7063 184.236L94.0037 186.303L92.4228 183.676L91.5959 183.627L89.6502 185.063L85.4911 191.704L83.4238 193.091L83.2292 196.935L80.6754 195.84L79.7268 193.626L77.8297 192.945L77.6108 191.729L74.595 191.875L72.8924 190.001L70.898 190.682L68.8064 189.734L66.4715 191.583L67.6876 194.575L61.3639 195.232L59.9046 194.429L57.8616 195.037L54.9673 193.285L50.0056 194.624L47.1843 193.626L42.9523 194.648L41.2984 191.972L37.0421 191.534L35.0721 190.415L33.1263 191.437L33.5154 194.453L32.2507 195.426L31.2535 195.159L30.8887 197.689L29.0402 200L27.1675 199.659L22.7165 196.74L18.436 199.124L17.7063 198.273L15.2498 197.932L13.1581 199.27L12.0636 199.076L9.48548 197.202L7.88024 197.105L5.25352 198.273L4.15901 197.129L4.84001 195.548L3.11319 193.48L2.74837 191.826L2.14033 183.968L3.18615 181.267L0 176.11L0.46212 173.385L1.79979 172.266L5.83721 173.896L7.53977 173.093L12.1123 167.863L13.0122 167.936L13.8635 169.152L14.5445 168.69L13.8635 167.328L14.4958 166.598L12.8906 164.335L13.6932 161.221L11.334 159.324L11.1394 158.034L12.9149 154.044L12.4285 151.952L14.0823 149.787L14.1067 148.181L15.6632 146.503L18.1198 147.5L21.16 147.257L22.3274 151.003L24.8325 147.987L28.1889 145.53L28.3592 142.416L27.7026 141.272L24.9055 140.616L23.5678 138.669L23.3489 135.482L26.0973 132.271L27.0702 129.862L30.3293 127.162L32.6885 127.6L33.6857 126.919L34.5126 124.316L37.8447 122.053L38.6716 120.472L37.5772 116.093L38.3068 114.147L37.8934 113.539L35.2422 114.001L34.0262 113.076L33.4181 111.13L32.2507 110.741L32.2751 107.773L34.1235 105.024L32.7128 102.567L33.102 99.4525L30.159 95.6332L27.6782 95.3655L25.8297 94.2465L23.3976 90.1594L21.4518 88.4808L23.9084 80.0632L26.4621 76.0248L31.5697 71.4512L34.3181 62.0605L34.1235 58.6547L37.4313 50.821L39.1095 43.9363L39.1338 38.2922L36.9205 33.9617L35.7531 25.8848L35.7287 23.0629L39.0365 14.621L37.261 10.1933L36.7989 4.379L38.4771 0.997381Z"
    fill="url(#linear-main)"
  />
  <path
    d="M56.0417 163.073L55.6772 162.685L48.5398 155.09L56.0417 163.073ZM56.0417 163.073L56.4061 162.685M56.0417 163.073L56.4061 162.685M56.4061 162.685L63.5365 155.09C64.6385 153.919 65.4556 152.628 65.9581 151.257C66.4658 149.889 66.6819 148.43 66.5924 146.973L66.5922 146.972C66.4183 144.301 65.2813 141.785 63.3924 139.888L63.3918 139.887C61.4431 137.938 58.7989 136.842 56.0415 136.842C53.2842 136.842 50.6398 137.938 48.6913 139.887L48.6907 139.888M48.6907 139.888C46.8016 141.785 45.6648 144.301 45.4909 146.972L46.0997 142.888ZM46.1183 151.257C46.6207 152.628 47.4376 153.919 48.5395 155.089L46.1183 151.257ZM46.1183 151.257C45.6095 149.888 45.3958 148.428 45.4909 146.972L46.1183 151.257ZM45.5945 151.475L45.7941 151.374C45.2734 149.96 45.0525 148.453 45.1459 146.949C45.3272 144.197 46.4992 141.603 48.4453 139.648C50.4589 137.632 53.1916 136.5 56.0415 136.5C58.8911 136.5 61.6238 137.632 63.6372 139.647C65.5827 141.604 66.7546 144.198 66.9373 146.95C67.037 148.453 66.8163 149.96 66.2895 151.372L66.2883 151.375C65.7765 152.775 64.9419 154.107 63.7955 155.324L63.795 155.324L56.1674 163.443L56.1673 163.443L56.1609 163.45C56.1319 163.482 56.0902 163.5 56.0465 163.5L56.0451 163.5C55.9961 163.5 55.9496 163.479 55.9165 163.444L55.9157 163.443L48.2878 155.324L48.2873 155.324C47.1409 154.107 46.3063 152.775 45.7945 151.375Z"
    stroke="white"
  />
  <path
    d="M51.3047 146.829C51.3047 144.143 53.4413 141.975 56.0421 141.975C58.6429 141.975 60.7795 144.143 60.7795 146.829C60.7795 149.516 58.6429 151.684 56.0421 151.684C53.4413 151.684 51.3047 149.516 51.3047 146.829ZM51.6476 146.829C51.6476 149.306 53.6033 151.342 56.0421 151.342C58.4809 151.342 60.4366 149.306 60.4366 146.829C60.4366 144.353 58.4808 142.317 56.0421 142.317C53.6034 142.317 51.6476 144.353 51.6476 146.829Z"
    stroke="white"
  />
  <path
    d="M24.85 172.01V173.9H27.95V175H23.7V168H27.9V169.1H24.85V170.92H27.65V172.01H24.85ZM31.0727 172.45L33.3527 175H32.0627L30.0127 172.69V175H28.9327V170H30.0127V172.21L31.9527 170H33.2727L31.0727 172.45ZM37.6388 170.71V170H38.7188V175H37.6388V174.28C37.2322 174.847 36.6488 175.13 35.8888 175.13C35.2022 175.13 34.6155 174.877 34.1288 174.37C33.6422 173.863 33.3988 173.24 33.3988 172.5C33.3988 171.76 33.6422 171.137 34.1288 170.63C34.6155 170.123 35.2022 169.87 35.8888 169.87C36.6488 169.87 37.2322 170.15 37.6388 170.71ZM34.9288 173.65C35.2288 173.95 35.6055 174.1 36.0588 174.1C36.5122 174.1 36.8888 173.95 37.1888 173.65C37.4888 173.343 37.6388 172.96 37.6388 172.5C37.6388 172.04 37.4888 171.66 37.1888 171.36C36.8888 171.053 36.5122 170.9 36.0588 170.9C35.6055 170.9 35.2288 171.053 34.9288 171.36C34.6288 171.66 34.4788 172.04 34.4788 172.5C34.4788 172.953 34.6288 173.337 34.9288 173.65ZM39.4477 170H43.7977V171.04H42.1677V175H41.0877V171.04H39.4477V170ZM49.1631 172.96H45.1831C45.2631 173.333 45.4431 173.623 45.7231 173.83C46.0098 174.037 46.3631 174.14 46.7831 174.14C47.3498 174.14 47.7798 173.933 48.0731 173.52L48.9631 174.04C48.4765 174.767 47.7465 175.13 46.7731 175.13C45.9665 175.13 45.3098 174.883 44.8031 174.39C44.3031 173.89 44.0531 173.26 44.0531 172.5C44.0531 171.76 44.2998 171.137 44.7931 170.63C45.2798 170.123 45.9131 169.87 46.6931 169.87C47.4198 169.87 48.0198 170.127 48.4931 170.64C48.9665 171.153 49.2031 171.777 49.2031 172.51C49.2031 172.643 49.1898 172.793 49.1631 172.96ZM45.1731 172.08H48.1131C48.0398 171.687 47.8731 171.383 47.6131 171.17C47.3598 170.957 47.0498 170.85 46.6831 170.85C46.2831 170.85 45.9498 170.96 45.6831 171.18C45.4165 171.4 45.2465 171.7 45.1731 172.08ZM52.9834 169.87C53.6634 169.87 54.2501 170.127 54.7434 170.64C55.2301 171.147 55.4734 171.767 55.4734 172.5C55.4734 173.24 55.2301 173.863 54.7434 174.37C54.2568 174.877 53.6701 175.13 52.9834 175.13C52.2301 175.13 51.6468 174.85 51.2334 174.29V177H50.1534V170H51.2334V170.72C51.6401 170.153 52.2234 169.87 52.9834 169.87ZM51.6834 173.65C51.9834 173.95 52.3601 174.1 52.8134 174.1C53.2668 174.1 53.6434 173.95 53.9434 173.65C54.2434 173.343 54.3934 172.96 54.3934 172.5C54.3934 172.04 54.2434 171.66 53.9434 171.36C53.6434 171.053 53.2668 170.9 52.8134 170.9C52.3601 170.9 51.9834 171.053 51.6834 171.36C51.3834 171.66 51.2334 172.04 51.2334 172.5C51.2334 172.953 51.3834 173.337 51.6834 173.65ZM57.5123 173.17L60.0723 170H60.9023V175H59.8423V171.82L57.2823 175H56.4523V170H57.5123V173.17ZM65.5254 171.99V170H66.6054V175H65.5254V173.01H63.2354V175H62.1554V170H63.2354V171.99H65.5254ZM70.1785 175.13C69.4185 175.13 68.7918 174.883 68.2985 174.39C67.8185 173.89 67.5785 173.253 67.5785 172.48C67.5785 171.64 67.7052 170.987 67.9585 170.52C68.2052 170.06 68.7185 169.637 69.4985 169.25C69.5252 169.237 69.5685 169.217 69.6285 169.19C69.6952 169.157 69.7652 169.123 69.8385 169.09C69.9118 169.057 69.9852 169.023 70.0585 168.99C70.3385 168.863 70.5118 168.783 70.5785 168.75C70.6185 168.73 70.7352 168.657 70.9285 168.53C71.1618 168.363 71.3185 168.127 71.3985 167.82L72.2785 168.33C72.2452 168.697 72.0152 169.033 71.5885 169.34C71.5152 169.407 71.3785 169.487 71.1785 169.58L70.7485 169.78L70.2485 169.99C69.8152 170.163 69.4952 170.34 69.2885 170.52C69.0818 170.7 68.9385 170.93 68.8585 171.21C69.2585 170.757 69.8018 170.53 70.4885 170.53C71.0752 170.53 71.5852 170.74 72.0185 171.16C72.4585 171.58 72.6785 172.123 72.6785 172.79C72.6785 173.47 72.4452 174.03 71.9785 174.47C71.5185 174.91 70.9185 175.13 70.1785 175.13ZM70.1685 174.12C70.5885 174.12 70.9318 173.997 71.1985 173.75C71.4652 173.497 71.5985 173.177 71.5985 172.79C71.5985 172.397 71.4652 172.073 71.1985 171.82C70.9385 171.567 70.5985 171.44 70.1785 171.44C69.8052 171.44 69.4685 171.56 69.1685 171.8C68.8685 172.027 68.7185 172.34 68.7185 172.74C68.7185 173.14 68.8585 173.47 69.1385 173.73C69.4185 173.99 69.7618 174.12 70.1685 174.12ZM75.427 173.64L76.707 170H77.857L75.937 175.16C75.7037 175.793 75.377 176.267 74.957 176.58C74.537 176.893 74.0504 177.033 73.497 177V175.99C74.137 176.03 74.5804 175.71 74.827 175.03L74.857 174.96L72.757 170H73.907L75.427 173.64ZM81.3623 169.87C82.0423 169.87 82.629 170.127 83.1223 170.64C83.609 171.147 83.8523 171.767 83.8523 172.5C83.8523 173.24 83.609 173.863 83.1223 174.37C82.6357 174.877 82.049 175.13 81.3623 175.13C80.609 175.13 80.0257 174.85 79.6123 174.29V177H78.5323V170H79.6123V170.72C80.019 170.153 80.6023 169.87 81.3623 169.87ZM80.0623 173.65C80.3623 173.95 80.739 174.1 81.1923 174.1C81.6457 174.1 82.0223 173.95 82.3223 173.65C82.6223 173.343 82.7723 172.96 82.7723 172.5C82.7723 172.04 82.6223 171.66 82.3223 171.36C82.0223 171.053 81.6457 170.9 81.1923 170.9C80.739 170.9 80.3623 171.053 80.0623 171.36C79.7623 171.66 79.6123 172.04 79.6123 172.5C79.6123 172.953 79.7623 173.337 80.0623 173.65ZM84.8312 170H88.1812V171.04H85.9112V175H84.8312V170Z"
    fill="white"
  />
  <defs>
    <linearGradient
      id="linear-main"
      gradientTransform="rotate(45)"
    >
      <stop stop-color="#DF55AD" />
      <stop
        offset="38.4587%"
        stop-color="#E57582"
      />
      <stop
        offset="70.3384%"
        stop-color="#ED9F5A"
      />
      <stop
        offset="100%"
        stop-color="#F1D872"
      />
    </linearGradient>
  </defs>
</svg>