<svg width="2263" height="1622" viewBox="0 0 2263 1622" fill="none" xmlns="http://www.w3.org/2000/svg">
<path d="M1317.53 42.1501C1297.86 163.818 1295.01 288.094 1309.47 410.711C1315.87 465.26 1323.7 520.995 1341.48 573.172C1356.65 617.997 1381.54 661.162 1422.31 687.013C1460.96 711.441 1509.32 718.794 1553.65 708.358C1600.59 697.211 1635.67 664.956 1664.83 627.958C1695.88 588.351 1722.44 545.897 1760.84 512.694C1800.9 477.83 1847.6 451.741 1891.22 421.621C1931.53 393.635 1968.27 361.617 1992.92 318.452C2014.5 280.505 2027.3 234.02 2014.5 190.855C2011.42 180.657 2006.91 170.696 2001.22 161.683C2000.51 160.497 1998.38 161.683 1999.09 162.869C2023.51 202.476 2020.42 250.622 2002.88 292.364C1983.92 337.9 1950.73 374.187 1911.85 403.596C1871.31 434.428 1826.51 459.331 1785.49 489.688C1765.82 504.393 1746.85 520.52 1730.26 538.782C1714.61 556.096 1700.86 574.832 1687.11 593.805C1659.14 631.99 1629.98 672.546 1586.36 694.128C1544.4 714.999 1493.91 715.948 1450.52 699.109C1350.72 660.213 1329.62 540.442 1316.11 446.998C1298.8 328.176 1297.62 207.22 1312.79 88.1609C1314.69 72.9821 1316.82 58.0404 1319.43 43.0987C1319.9 41.2014 1317.77 40.4899 1317.53 42.1501Z" fill="white"/>
<path d="M1336.73 73.9309C1319.67 178.997 1317.29 286.435 1329.86 392.212C1335.55 439.171 1342.19 487.317 1357.83 532.142C1370.87 570.326 1392.44 606.85 1427.53 628.67C1460.48 649.303 1501.97 655.707 1539.66 646.932C1579.96 637.445 1610.3 609.933 1635.2 578.39C1662.22 544.237 1684.98 507.476 1717.93 478.779C1752.78 448.421 1793.55 425.89 1831.48 399.564C1866.1 375.373 1897.39 347.861 1918.25 310.626C1936.5 277.896 1947.17 238.052 1936.03 201.291C1933.42 192.753 1929.63 184.452 1924.89 176.862C1924.18 175.676 1922.04 176.862 1922.75 178.048C1944.09 212.675 1941.01 254.417 1925.36 290.704C1908.77 329.362 1880.56 360.194 1847.37 385.097C1812.52 411.423 1774.11 432.768 1739.03 458.857C1722.2 471.426 1706.08 485.182 1691.85 500.835C1678.34 515.54 1666.73 531.667 1654.87 547.795C1630.93 580.761 1605.56 615.625 1568.34 634.362C1532.55 652.149 1489.17 653.098 1451.95 638.868C1366.13 605.901 1347.88 503.207 1336.02 423.044C1321.09 320.824 1320.14 216.707 1332.94 114.487C1334.6 101.205 1336.5 88.1611 1338.63 75.1168C1339.34 72.9823 1336.97 72.2707 1336.73 73.9309Z" fill="white"/>
<path d="M1378.93 129.903C1364 221.924 1359.73 315.369 1367.08 408.339C1370.16 448.658 1373.72 490.874 1387.94 528.821C1399.56 559.89 1421.13 588.114 1455.27 594.992C1486.8 601.395 1517.85 587.639 1538 563.448C1559.58 537.834 1574.27 507.002 1592.53 479.016C1602.01 464.548 1612.44 452.453 1625 440.594C1640.41 426.127 1655.59 411.185 1669.81 395.532C1692.57 370.629 1713.9 344.067 1730.73 314.895C1759.42 264.852 1770.8 209.592 1775.54 152.671C1776.25 144.844 1776.72 137.018 1777.2 128.954C1777.2 127.531 1774.83 127.531 1774.83 128.954C1771.27 185.163 1764.16 241.609 1739.51 293.075C1726.23 320.824 1708.45 346.201 1689.01 369.918C1677.16 384.148 1664.59 397.904 1651.56 411.185C1637.81 425.178 1622.4 437.748 1609.36 452.453C1588.02 476.17 1573.8 505.579 1556.73 532.379C1539.42 559.89 1519.27 585.979 1485.37 592.383C1468.07 595.703 1449.81 593.094 1434.17 584.556C1418.52 576.018 1406.67 562.025 1398.37 546.609C1379.88 512.219 1375.38 471.189 1371.35 432.768C1362.34 343.829 1364 253.942 1375.85 165.241C1377.51 153.383 1379.17 141.761 1381.07 129.903C1381.3 129.191 1379.17 128.48 1378.93 129.903Z" fill="white"/>
<path d="M1402.64 124.211C1390.07 201.765 1386.28 280.743 1392.21 359.008C1394.81 393.398 1397.66 429.21 1409.27 461.94C1418.76 488.74 1436.54 513.643 1465.46 520.283C1493.2 526.924 1520.22 514.591 1538.71 494.195C1559.81 470.952 1572.14 441.543 1590.63 416.641C1615.99 382.725 1644.68 351.656 1665.3 314.183C1690.91 267.224 1703.47 214.572 1710.58 161.684C1711.77 153.146 1712.72 144.37 1713.66 135.832C1713.9 134.409 1711.53 134.409 1711.29 135.832C1705.37 191.093 1695.17 247.302 1670.76 297.819C1653.45 333.868 1628.8 365.175 1603.9 396.007C1596.32 405.494 1588.49 414.743 1581.62 424.941C1573.32 437.274 1565.97 450.319 1558.15 462.888C1542.27 488.266 1522.59 513.88 1491.3 518.86C1459.53 523.841 1432.74 505.342 1418.52 477.83C1403.11 448.184 1399.32 413.083 1396.24 380.116C1387.94 294.973 1391.02 208.88 1404.53 124.448C1405.24 123.499 1402.87 122.788 1402.64 124.211Z" fill="white"/>
<path d="M1440.09 121.839C1432.51 166.427 1425.16 211.015 1423.26 256.314C1422.31 278.845 1422.79 301.376 1425.4 323.907C1427.29 340.983 1429.9 358.771 1437.49 374.424C1443.41 386.52 1453.37 397.43 1467.36 399.327C1485.14 401.936 1501.02 389.84 1512.87 378.219C1541.08 350.944 1564.08 318.215 1583.99 284.537C1607.22 245.167 1626.19 203.425 1643.97 161.446C1644.44 160.023 1642.55 158.837 1641.83 160.26C1612.44 229.277 1579.96 298.767 1530.42 355.925C1518.56 369.681 1505.52 385.097 1488.93 393.161C1471.15 401.699 1453.37 396.007 1442.94 379.405C1433.69 364.937 1430.85 347.387 1428.48 330.548C1425.63 309.44 1424.69 288.095 1425.16 266.749C1426.11 218.367 1434.17 170.222 1442.23 122.551C1442.7 120.89 1440.33 120.416 1440.09 121.839Z" fill="white"/>
<path d="M1478.73 130.14C1469.49 156.94 1464.03 185.163 1463.09 213.624C1462.61 227.854 1463.09 242.558 1464.98 256.788C1466.17 266.512 1468.77 276.711 1474.7 284.774C1480.15 291.889 1488.45 295.921 1497.46 294.735C1508.84 293.312 1518.32 285.011 1525.91 277.185C1545.11 257.974 1562.65 236.866 1578.3 214.572C1596.31 189.432 1611.96 162.632 1625.47 134.646C1626.18 133.223 1624.05 132.037 1623.34 133.46C1601.77 178.76 1573.79 220.739 1540.37 258.211C1527.33 272.679 1500.78 306.594 1479.44 286.435C1471.86 279.319 1469.01 268.41 1467.35 258.449C1465.46 245.404 1464.98 232.123 1464.98 218.841C1465.46 188.721 1470.91 158.837 1480.63 130.377C1481.58 129.191 1479.21 128.717 1478.73 130.14Z" fill="white"/>
<path d="M978.523 1620.51C977.1 1499.08 959.084 1378.12 924.71 1261.67C909.301 1209.26 891.995 1155.66 866.629 1107.04C844.582 1064.82 813.29 1024.98 768.722 1005.06C726.762 986.32 677.216 986.32 634.782 1003.4C589.266 1021.66 559.396 1059.37 536.638 1101.35C512.221 1146.41 493.256 1193.61 460.541 1233.69C426.641 1275.19 384.681 1309.11 346.751 1346.82C312.14 1381.21 282.033 1418.68 265.438 1465.16C250.74 1506.43 246.473 1554.34 266.624 1594.42C271.365 1603.91 277.529 1612.68 284.403 1620.51C285.352 1621.7 287.011 1620.04 286.063 1618.85C254.771 1583.75 250.029 1535.13 260.46 1490.78C271.365 1443.34 297.442 1402.55 330.156 1367.45C365.005 1329.74 405.068 1297.49 440.391 1260.25C457.459 1242.23 473.579 1222.78 486.855 1201.67C499.893 1181.04 510.324 1159.22 521.229 1137.4C542.327 1094.47 565.323 1049.17 606.097 1021.66C644.976 995.332 695.47 987.269 740.986 998.178C844.108 1023.32 883.698 1139.53 912.619 1229.18C948.89 1342.07 970.226 1459.71 975.204 1578.06C975.915 1592.29 976.152 1606.28 976.389 1620.51C976.152 1621.93 978.523 1621.93 978.523 1620.51Z" fill="white"/>
<path d="M953.878 1592.52C952.693 1488.41 937.047 1384.29 907.888 1284.2C894.613 1238.91 879.678 1192.89 857.868 1150.92C838.903 1114.39 811.878 1080.24 773.237 1063.16C737.203 1047.04 694.295 1047.04 657.787 1061.98C618.909 1077.87 593.306 1110.12 573.63 1146.17C552.531 1185.07 536.174 1226.1 507.489 1260.73C478.094 1296.54 441.586 1325.71 408.871 1358.44C379.239 1387.85 353.636 1420.34 339.886 1460.18C327.559 1495.29 324.24 1535.84 341.309 1570.23C345.339 1578.53 350.554 1585.88 356.718 1592.76C357.666 1593.95 359.325 1592.29 358.377 1591.1C331.589 1560.74 327.559 1519 336.33 1480.82C345.813 1440.5 367.86 1405.64 395.596 1375.75C425.703 1343.26 460.551 1315.27 491.132 1283.02C505.593 1267.6 519.105 1251.48 530.484 1233.45C541.626 1215.9 550.635 1197.4 559.643 1178.9C578.134 1141.43 597.81 1102.06 633.37 1077.87C666.795 1055.34 710.178 1048.22 749.293 1057.71C838.192 1079.53 872.329 1180.09 896.983 1257.4C927.801 1353.7 945.818 1453.78 950.322 1554.81C950.797 1567.38 951.271 1580.19 951.271 1592.76C951.508 1594.19 953.878 1594.18 953.878 1592.52Z" fill="white"/>
<path d="M902.901 1544.38C901.716 1452.83 890.337 1361.52 868.053 1272.58C858.096 1232.98 847.665 1191.95 827.515 1156.13C811.158 1127.2 786.029 1101.82 750.944 1099.45C718.94 1097.32 689.782 1115.1 673.424 1141.9C655.882 1170.36 646.873 1203.33 633.835 1233.93C627.908 1247.92 621.271 1261.91 611.788 1274.01C598.513 1291.56 585.474 1309.34 573.384 1327.84C554.656 1356.54 537.587 1386.66 525.497 1418.92C504.636 1473.94 502.739 1531.57 507.955 1589.44C508.666 1597.27 509.377 1605.09 510.325 1613.16C510.562 1614.58 512.933 1614.58 512.696 1613.16C506.532 1556.71 503.687 1499.55 519.571 1444.29C528.342 1413.94 541.855 1385.24 557.501 1357.96C567.22 1341.36 577.651 1325.24 588.556 1309.58C599.461 1293.93 612.262 1279.46 621.982 1262.86C638.102 1235.59 647.11 1204.28 659.438 1175.11C665.127 1161.35 671.528 1147.6 680.299 1135.5C690.493 1121.51 704.954 1110.83 721.548 1105.38C737.668 1100.16 755.211 1100.16 771.331 1105.85C788.874 1112.02 802.861 1124.83 814.002 1139.53C837.472 1170.84 848.614 1210.21 858.807 1247.21C882.751 1333.3 896.263 1422 899.582 1511.18C900.056 1522.09 900.293 1533 900.293 1544.14C900.53 1546.04 902.901 1546.04 902.901 1544.38Z" fill="white"/>
<path d="M880.381 1554.1C879.433 1477.5 869.95 1401.13 851.697 1326.9C843.399 1293.45 834.628 1259.06 818.745 1228.47C805.706 1203.33 785.556 1179.85 756.16 1175.34C728.898 1171.31 703.295 1184.59 687.412 1206.18C668.447 1231.79 661.098 1263.81 647.823 1292.27C638.103 1312.9 625.776 1332.59 615.108 1352.75C605.625 1371.01 596.854 1389.51 589.979 1408.96C572.2 1459.71 568.644 1514.02 570.303 1567.38C570.54 1576.87 571.014 1586.36 571.726 1595.85C571.726 1597.27 574.096 1597.27 574.096 1595.85C570.54 1540.11 570.777 1482.72 586.186 1428.4C597.328 1389.03 617.004 1353.22 636.918 1317.65C643.318 1306.26 649.482 1294.88 654.46 1282.78C660.387 1268.31 665.602 1253.61 671.766 1239.38C683.619 1211.87 701.399 1185.07 732.691 1178.19C804.284 1162.77 830.361 1255.51 844.111 1306.74C865.92 1387.14 877.062 1470.62 878.01 1553.87C878.01 1555.76 880.381 1555.76 880.381 1554.1Z" fill="white"/>
<path d="M844.112 1562.88C843.875 1519 843.401 1474.89 837.949 1431.25C835.341 1410.38 831.548 1389.75 826.096 1369.35C821.354 1351.56 815.902 1333.06 805.708 1317.41C798.122 1305.55 786.98 1295.11 772.282 1294.17C754.977 1293.22 741.227 1305.79 731.271 1318.36C706.853 1349.19 689.548 1386.66 675.561 1423.19C658.729 1467.3 646.876 1512.84 635.971 1558.85C635.734 1560.27 637.868 1560.98 638.342 1559.56C655.885 1483.9 676.983 1407.3 718.706 1341.13C728.189 1325.95 738.857 1308.4 755.451 1300.33C773.231 1291.56 790.536 1300.33 801.204 1315.27C811.872 1329.74 817.324 1347.77 822.303 1364.84C827.992 1384.29 831.785 1403.98 834.63 1424.13C841.031 1470.15 841.505 1516.63 841.742 1563.12C841.742 1564.54 844.112 1564.54 844.112 1562.88Z" fill="white"/>
<path d="M804.291 1561.93C808.795 1533.94 809.269 1505.48 805.476 1477.26C803.342 1462.56 800.498 1447.85 795.994 1433.86C793.149 1424.61 788.882 1415.12 781.533 1408.72C764.464 1393.07 745.499 1407.3 734.357 1422.24C717.763 1444.77 703.776 1469.91 691.686 1495.29C678.173 1523.27 667.268 1552.44 658.734 1582.56C658.26 1583.99 660.631 1584.7 661.105 1583.28C674.854 1534.42 695.479 1487.7 722.267 1444.77C732.224 1428.88 751.426 1393.07 775.369 1407.06C784.377 1412.28 789.593 1422.71 792.912 1432.44C797.179 1444.29 799.787 1456.86 801.92 1469.43C807.135 1499.79 807.135 1531.1 802.157 1561.46C801.92 1562.64 804.054 1563.35 804.291 1561.93Z" fill="white"/>
<path d="M209.497 1310.29C267.103 1269.74 320.679 1223.02 368.566 1171.07C392.509 1145.22 416.453 1118.19 435.181 1088.54C451.064 1063.64 464.339 1032.57 455.094 1002.68C447.745 978.968 427.358 961.417 403.414 955.963C370.7 948.61 336.8 961.18 305.27 967.821C280.142 973.039 254.065 973.987 228.462 977.071C207.838 979.442 187.213 982.763 167.063 987.98C113.487 1001.97 65.3629 1030.67 21.2693 1063.4C14.1574 1068.62 7.28259 1074.07 0.407777 1079.53C-0.777536 1080.48 0.881902 1082.14 2.06722 1081.19C47.1091 1045.85 95.944 1012.88 150.705 995.095C190.295 982.288 231.544 978.968 272.556 974.936C287.965 973.513 303.137 970.904 318.309 967.347C335.14 963.315 351.972 958.809 369.04 957.148C397.962 954.065 427.832 961.417 444.9 986.795C462.68 1013.12 456.042 1045.38 442.293 1071.94C426.409 1102.53 402.94 1129.33 380.182 1154.95C329.214 1212.58 271.37 1264.05 208.312 1308.4C206.889 1309.11 208.075 1311.24 209.497 1310.29Z" fill="white"/>
<path d="M181.527 1285.39C214.241 1262.62 246.956 1239.62 277.3 1213.77C292.235 1200.96 306.696 1187.44 320.208 1172.73C333.247 1158.5 346.048 1143.56 355.768 1126.96C364.065 1112.97 370.94 1094.71 364.302 1078.58C358.375 1064.35 344.152 1057.71 329.928 1055.34C310.963 1052.02 291.05 1053.68 272.084 1055.57C250.986 1057.47 230.361 1061.03 209.737 1065.53C160.902 1076.44 113.727 1093.52 67.0253 1111.78C65.6029 1112.26 66.3141 1114.63 67.7365 1114.15C144.308 1084.27 224.435 1056.52 307.644 1056.28C323.527 1056.28 342.018 1057.23 354.345 1068.38C370.228 1082.61 365.013 1104.9 356.242 1121.51C347.47 1138.35 334.669 1153.52 321.868 1167.52C309.54 1181.27 296.265 1194.08 282.515 1206.18C250.512 1234.4 215.189 1259.06 180.341 1283.49C179.156 1284.2 180.341 1286.34 181.527 1285.39Z" fill="white"/>
<path d="M160.42 1251.95C183.652 1241.04 205.462 1226.81 225.138 1209.97C235.095 1201.43 244.577 1191.95 253.111 1182.22C260.934 1173.45 268.757 1163.96 272.313 1152.58C275.158 1143.33 274.447 1133.36 267.572 1126.01C261.171 1119.37 251.689 1116.76 242.918 1115.81C229.405 1114.39 215.655 1115.34 202.143 1116.05C187.919 1116.76 173.458 1118.19 159.234 1120.32C125.809 1125.06 92.8569 1132.89 60.8534 1143.8C59.4311 1144.27 60.1423 1146.65 61.5646 1146.17C112.533 1128.86 166.109 1119.13 220.16 1117.95C231.302 1117.71 243.155 1117.24 253.822 1120.56C266.624 1124.83 273.736 1135.74 270.654 1149.26C267.809 1161.35 259.275 1171.55 251.215 1180.56C243.392 1189.57 235.095 1197.87 226.323 1205.7C206.173 1223.73 183.415 1238.43 159.234 1250.05C157.812 1250.53 158.997 1252.66 160.42 1251.95Z" fill="white"/>
<path d="M2137.53 429.447C2071.15 444.152 2007.62 470.003 1949.78 505.579C1892.17 540.917 1840.26 585.742 1797.35 637.919C1754.91 689.385 1722.44 752.472 1665.3 789.707C1601.77 831.212 1521.88 825.52 1451.47 808.918C1375.14 791.13 1300.23 760.061 1220.57 761.958C1158.46 763.619 1098.49 787.573 1050.13 825.757C1000.34 864.89 962.887 918.49 943.922 978.968C923.06 1045.14 924.009 1117.24 942.5 1183.88C960.516 1249.1 995.839 1307.92 1043.01 1356.3C1089 1403.26 1145.19 1439.79 1206.11 1464.45C1221.05 1470.62 1236.46 1475.84 1252.1 1480.58C1253.53 1481.06 1254.24 1478.68 1252.81 1478.21C1189.04 1459.24 1128.83 1427.69 1077.86 1385C1026.42 1341.84 984.223 1287.29 959.094 1224.68C933.017 1159.69 924.246 1087.12 937.047 1017.86C949.137 953.354 980.667 894.062 1027.84 848.525C1073.36 804.649 1132.39 774.054 1195.21 765.99C1273.2 756.266 1348.82 783.778 1422.79 803.7C1489.17 821.725 1563.37 834.769 1629.98 810.104C1692.8 786.861 1731.44 730.889 1769.14 678.949C1809.2 623.689 1855.43 574.595 1910.66 534.513C1965.42 494.669 2026.59 463.837 2091.31 443.915C2106.95 439.171 2122.6 434.902 2138.72 431.345C2139.67 431.345 2138.95 429.21 2137.53 429.447Z" fill="white"/>
<path d="M1254.71 1446.67C1148.98 1424.85 1064.35 1343.02 1019.3 1247.44C995.36 1196.69 981.848 1140.72 981.611 1084.51C981.374 1031.14 992.516 971.141 1029.5 930.111C1048.7 908.766 1075.25 895.247 1104.17 894.061C1134.52 892.875 1163.91 904.022 1189.75 919.201C1243.57 950.507 1282.21 1000.08 1329.62 1039.21C1350.48 1056.52 1373.48 1072.18 1399.08 1081.42C1426.58 1091.39 1455.26 1091.86 1483.95 1087.59C1542.03 1078.58 1605.32 1049.88 1662.69 1077.16C1712.24 1100.64 1739.5 1156.13 1748.75 1207.84C1761.07 1275.19 1743.06 1343.97 1721.48 1407.53C1716.03 1423.42 1710.34 1439.55 1704.41 1455.2C1703.94 1456.63 1706.07 1457.34 1706.79 1455.91C1731.44 1388.56 1756.33 1318.83 1754.91 1246.26C1753.72 1192.89 1735.71 1135.5 1696.35 1098.03C1677.39 1080 1653.68 1068.38 1627.61 1064.82C1597.03 1060.79 1566.44 1067.43 1536.81 1074.31C1505.52 1081.42 1473.75 1089.73 1441.51 1088.07C1410.93 1086.41 1382.48 1074.31 1357.36 1057.47C1304.96 1022.37 1266.8 970.43 1215.83 933.668C1169.84 900.228 1107.02 874.85 1053.68 907.343C1007.92 935.329 988.249 992.249 982.085 1042.77C974.973 1098.74 983.033 1156.84 1001.76 1209.97C1037.32 1311 1114.84 1402.31 1217.49 1438.6C1229.58 1442.87 1242.14 1446.43 1254.71 1448.8C1255.66 1449.27 1256.37 1447.14 1254.71 1446.67Z" fill="white"/>
<path d="M1301.18 1423.42C1214.41 1397.81 1139.74 1336.62 1095.64 1257.64C1074.54 1219.93 1059.13 1177.48 1058.19 1133.84C1057.48 1095.66 1067.91 1052.25 1101.33 1029.72C1146.14 999.602 1202.56 1022.84 1242.62 1049.88C1283.4 1077.39 1320.61 1111.07 1370.16 1120.32C1415.44 1128.86 1461.67 1121.27 1506.71 1116.05C1550.8 1111.07 1597.98 1106.8 1639.46 1125.54C1683.08 1145.22 1709.4 1187.44 1719.59 1232.98C1731.44 1286.58 1720.07 1341.84 1704.66 1393.54C1700.63 1407.3 1696.36 1420.81 1691.85 1434.33C1691.38 1435.76 1693.75 1436.47 1694.23 1435.04C1712.01 1380.02 1730.5 1322.86 1726.47 1264.52C1723.38 1219.69 1706.55 1173.21 1671.7 1143.33C1636.62 1113.44 1590.63 1107.51 1546.06 1110.12C1497.94 1112.73 1450.29 1123.64 1401.69 1121.51C1376.32 1120.56 1351.67 1115.34 1328.67 1104.19C1304.49 1092.57 1283.16 1076.21 1261.59 1060.55C1222.47 1032.33 1172.21 1001.74 1121.96 1017.15C1083.31 1029.01 1062.69 1066.01 1057.24 1103.96C1051.07 1145.94 1060.56 1187.68 1076.91 1226.1C1112.71 1310.29 1182.64 1379.31 1267.04 1414.17C1277.71 1418.68 1288.85 1422.47 1299.99 1425.8C1301.89 1426.03 1302.6 1423.66 1301.18 1423.42Z" fill="white"/>
<path d="M1153.71 1029.49C1131.19 1028.77 1109.62 1039.21 1096.58 1057.71C1082.12 1077.87 1081.17 1106.09 1082.12 1130.04C1084.02 1182.93 1105.83 1237.25 1145.89 1273.06C1164.38 1289.66 1187.61 1302.7 1212.74 1305.55C1237.87 1308.4 1261.82 1299.15 1278.41 1280.17C1313.26 1239.85 1312.55 1176.29 1292.4 1129.33C1268.45 1073.36 1214.17 1034.94 1153.71 1029.49C1152.29 1029.25 1152.29 1031.62 1153.71 1031.86C1205.63 1036.36 1253.99 1066.25 1280.54 1111.07C1306.62 1155.18 1313.02 1215.43 1288.13 1261.44C1276.04 1283.49 1255.65 1300.57 1230.05 1303.18C1205.39 1305.79 1180.98 1295.83 1161.06 1281.83C1119.81 1252.9 1094.45 1203.57 1086.86 1154.47C1084.73 1140.24 1084.02 1125.78 1084.73 1111.55C1085.44 1097.55 1086.63 1082.85 1092.32 1070.04C1103.22 1046.09 1127.64 1031.38 1153.71 1032.09C1155.37 1032.09 1155.37 1029.72 1153.71 1029.49Z" fill="white"/>
<path d="M1165.09 1210.21C1176.95 1213.53 1189.27 1211.16 1198.99 1203.57C1209.9 1194.79 1214.4 1179.61 1217.25 1166.33C1223.41 1137.16 1218.91 1104.19 1201.13 1079.53C1185.48 1057.95 1157.03 1043 1132.62 1060.32C1108.44 1077.39 1100.61 1111.55 1105.12 1139.29C1110.57 1172.26 1134.04 1199.3 1165.09 1210.21C1166.52 1210.68 1167.23 1208.55 1165.81 1207.84C1140.68 1198.82 1120.05 1178.66 1111.28 1153.52C1102.04 1126.72 1105.59 1093.28 1124.56 1071.23C1133.09 1061.27 1145.18 1054.39 1158.46 1055.1C1171.73 1055.81 1183.58 1063.4 1192.36 1072.65C1211.32 1092.57 1218.91 1121.74 1217.25 1148.78C1216.3 1163.49 1212.98 1180.8 1204.68 1193.61C1196.15 1206.65 1180.27 1212.11 1165.57 1208.07C1164.15 1207.6 1163.43 1209.97 1165.09 1210.21Z" fill="white"/>
<path d="M1161.54 1160.64C1168.89 1162.54 1176.48 1161.35 1182.41 1156.37C1189.04 1151.15 1191.65 1142.14 1193.55 1134.31C1197.58 1115.81 1194.73 1094.94 1182.88 1079.53C1173.16 1066.96 1156.33 1058.89 1141.87 1069.09C1127.41 1079.29 1122.43 1099.69 1124.8 1116.53C1127.88 1136.92 1142.34 1153.52 1161.54 1160.64C1162.97 1161.11 1163.68 1158.98 1162.26 1158.27C1142.58 1151.15 1128.36 1133.37 1126.93 1112.26C1125.51 1093.76 1135.94 1064.11 1159.17 1066.72C1202.56 1071.7 1204.45 1169.18 1162.26 1158.03C1160.83 1158.03 1160.12 1160.17 1161.54 1160.64Z" fill="white"/>
<path d="M1253.05 868.684C1247.6 882.44 1253.76 899.99 1259.21 912.797C1266.32 929.636 1277.7 943.867 1291.22 956.199C1320.37 983 1356.41 1003.87 1392.92 1019.29C1428.95 1034.47 1467.12 1043.95 1505.99 1046.56C1524.96 1047.75 1544.16 1047.27 1563.13 1045.14C1578.77 1043.24 1595.6 1040.63 1609.12 1032.09C1641.36 1011.46 1628.08 971.378 1609.83 945.764C1592.52 921.81 1569.05 903.074 1543.92 887.895C1494.38 858.249 1436.54 840.224 1379.4 833.82C1354.99 831.211 1329.86 830.5 1305.44 835.243C1288.37 838.564 1270.12 844.967 1258.98 858.96C1256.84 861.806 1254.95 864.889 1253.52 868.21C1252.81 869.633 1254.95 870.819 1255.66 869.396C1262.53 853.98 1277.7 845.441 1293.11 840.698C1313.97 834.295 1336.26 833.346 1357.83 834.294C1412.36 836.666 1467.59 851.608 1516.66 875.562C1540.61 887.183 1563.6 901.176 1583.28 918.964C1595.84 930.348 1607.22 943.392 1615.52 958.097C1624.29 973.513 1630.93 992.486 1624.76 1010.04C1618.84 1026.64 1602.48 1034.7 1586.36 1038.73C1569.29 1043 1551.27 1044.43 1533.73 1044.66C1496.75 1045.38 1459.77 1039.45 1424.68 1028.3C1388.17 1016.68 1353.33 999.127 1322.03 977.07C1291.45 955.725 1262.53 928.688 1255.42 890.504C1254 883.626 1253.52 876.036 1256.13 869.158C1255.89 867.973 1253.52 867.261 1253.05 868.684Z" fill="white"/>
<path d="M1347.16 893.587C1344.79 902.837 1348.58 913.272 1352.37 921.573C1357.35 933.194 1364.94 943.155 1373.95 951.931C1393.15 970.667 1417.09 985.846 1441.51 997.23C1464.5 1007.9 1489.16 1015.49 1514.29 1018.1C1526.14 1019.29 1537.99 1019.52 1549.85 1018.34C1560.04 1017.39 1571.42 1015.97 1580.19 1010.51C1600.34 997.704 1591.1 971.616 1580.66 955.488C1569.29 938.175 1553.4 924.182 1536.1 912.798C1503.38 891.215 1464.5 876.748 1425.39 871.293C1402.16 868.21 1356.88 864.652 1347.16 893.587C1346.68 895.01 1349.05 895.722 1349.53 894.299C1357.59 870.345 1393.62 870.819 1413.54 872.479C1449.09 875.325 1484.65 886.946 1515.95 903.548C1531.59 911.849 1546.76 921.81 1559.57 934.143C1574.5 948.373 1595.6 973.276 1588.72 995.57C1585.17 1007.19 1573.79 1011.93 1562.88 1014.07C1551.98 1016.2 1540.6 1016.92 1529.22 1016.44C1505.99 1015.97 1482.99 1010.99 1461.18 1002.68C1434.16 992.724 1408.79 977.782 1386.51 959.757C1376.08 951.219 1366.12 941.495 1359.25 929.874C1353.56 920.15 1346.21 905.683 1349.29 894.061C1349.77 892.876 1347.39 892.164 1347.16 893.587Z" fill="white"/>
<path d="M2147.96 507.713C2061.19 541.391 1978.7 585.505 1902.6 638.868C1832.9 687.724 1762.02 747.728 1741.16 834.295C1731.68 873.665 1734.99 913.509 1751.59 950.508C1767 984.66 1790.23 1014.31 1811.09 1045.14C1831.72 1075.97 1850.92 1109.17 1854.95 1146.88C1859.69 1191.47 1843.57 1234.64 1838.12 1278.28C1835.51 1299.62 1835.27 1321.2 1840.96 1342.07C1845.94 1360.34 1855.42 1377.18 1867.28 1392.12C1894.54 1426.03 1933.42 1446.9 1973.01 1462.56C1983.67 1466.83 1994.34 1470.62 2005.01 1474.41C2006.43 1474.89 2007.14 1472.52 2005.72 1472.04C1963.29 1457.1 1920.14 1440.02 1886.71 1409.19C1872.02 1395.67 1859.45 1379.78 1850.92 1361.76C1841.44 1341.84 1838.12 1320.25 1838.83 1298.2C1840.49 1255.03 1856.13 1214 1858.03 1170.84C1859.69 1134.08 1847.6 1100.16 1829.11 1068.86C1810.62 1037.55 1787.86 1009.33 1769.13 978.257C1748.98 944.579 1735.94 908.055 1738.31 868.21C1744 777.374 1811.8 708.595 1880.79 657.367C1953.09 603.766 2032.27 558.942 2115.01 523.603C2126.15 518.86 2137.29 514.354 2148.43 510.085C2150.09 509.61 2149.38 507.239 2147.96 507.713Z" fill="white"/>
<path d="M2142.51 558.467C2078.5 587.876 2013.55 617.76 1958.78 662.822C1908.05 704.563 1866.57 761.484 1854.24 826.943C1842.39 889.555 1862.77 951.931 1905.44 998.89C1951.43 1049.41 2018.05 1075.5 2085.14 1081.66C2141.56 1086.88 2210.07 1080.48 2250.37 1035.89C2254.88 1030.91 2258.91 1025.45 2262.46 1019.76C2263.17 1018.58 2261.28 1017.15 2260.33 1018.58C2228.8 1069.8 2162.42 1082.61 2106.47 1080.71C2038.91 1078.58 1970.16 1057 1919.91 1010.27C1873.68 967.11 1846.89 905.92 1854 842.359C1861.35 777.374 1899.28 718.794 1946.93 675.866C2003.83 624.875 2074.47 592.382 2143.22 560.602C2145.12 559.89 2143.93 557.993 2142.51 558.467Z" fill="white"/>
<path d="M2131.6 609.696C2059.53 651.437 1986.04 708.121 1961.39 791.367C1950.25 828.84 1949.06 870.582 1962.57 907.58C1976.56 946.239 2006.67 975.648 2043.88 992.012C2093.91 1014.07 2150.09 1011.93 2202.48 1000.55C2203.9 1000.31 2203.43 997.942 2201.77 998.179C2154.83 1008.38 2104.81 1011.22 2058.82 995.333C2019.47 981.577 1985.57 954.54 1968.5 916.118C1952.62 880.306 1951.67 839.038 1960.91 801.328C1970.87 761.484 1992.68 726.146 2020.65 696.262C2052.89 661.873 2092.01 635.073 2132.55 611.593C2133.97 610.881 2132.78 608.984 2131.6 609.696Z" fill="white"/>
<path d="M2101.26 666.616C2056.69 696.499 2010.47 736.581 1998.61 791.604C1987 845.204 2014.5 902.837 2064.52 926.079C2092.25 938.886 2124.26 941.258 2153.41 932.246C2154.84 931.771 2154.36 929.4 2152.7 929.874C2099.84 946.476 2040.81 923.945 2013.78 875.325C2000.75 851.845 1995.29 824.096 2000.04 797.296C2004.54 770.971 2017.82 747.016 2034.88 726.857C2054.09 703.852 2078.03 685.115 2102.68 668.513C2103.87 667.802 2102.68 665.667 2101.26 666.616Z" fill="white"/>
<path d="M2092.01 707.409C2060.48 724.248 2039.86 757.452 2037.01 792.79C2034.17 828.603 2051.71 862.518 2080.63 883.389C2097.23 895.247 2117.14 902.362 2137.53 903.074C2138.95 903.074 2138.95 900.702 2137.53 900.702C2102.44 899.516 2069.25 878.645 2051.71 848.288C2034.17 817.93 2035.59 780.22 2052.42 749.863C2061.9 732.786 2075.89 718.556 2093.2 709.307C2094.38 708.832 2093.2 706.698 2092.01 707.409Z" fill="white"/>
<path d="M2106.95 1144.99C2069.97 1134.55 2029.43 1138.35 1995.06 1155.18C1960.45 1172.02 1933.66 1202.38 1919.44 1238.19C1905.21 1274.48 1905.45 1314.33 1918.96 1350.85C1932.47 1386.9 1957.6 1418.21 1988.42 1441.21C2027.06 1469.91 2073.53 1486.27 2120.46 1494.34C2121.89 1494.57 2122.6 1492.2 2121.18 1491.96C2043.66 1478.45 1965.9 1440.97 1928.92 1367.69C1911.61 1333.3 1905.92 1293.93 1915.88 1256.46C1925.6 1219.46 1948.83 1186.02 1981.31 1165.62C2018.05 1142.38 2064.28 1135.5 2106.24 1147.36C2107.66 1147.83 2108.37 1145.46 2106.95 1144.99Z" fill="white"/>
<path d="M2104.1 1202.14C2071.86 1188.86 2034.64 1184.83 2001.46 1197.16C1975.38 1206.89 1952.62 1227.28 1942.19 1253.37C1917.3 1315.75 1969.93 1380.26 2019.71 1411.56C2050.29 1430.77 2085.14 1441.92 2121.17 1444.06C2122.59 1444.06 2122.59 1441.68 2121.17 1441.68C2060.01 1438.13 1999.32 1406.82 1963.53 1356.3C1945.51 1330.69 1933.18 1298.2 1940.53 1266.42C1946.93 1238.43 1968.03 1215.43 1993.63 1203.33C2028.01 1186.73 2068.78 1190.52 2103.39 1204.75C2104.81 1204.99 2105.53 1202.86 2104.1 1202.14Z" fill="white"/>
<path d="M2110.27 1244.12C2087.74 1234.16 2062.62 1227.28 2038.2 1233.21C2016.63 1238.43 1999.32 1252.9 1992.21 1274.01C1977.51 1318.36 2000.03 1371.01 2035.59 1398.76C2056.69 1415.12 2082.77 1424.37 2109.32 1425.32C2110.74 1425.32 2110.74 1422.95 2109.32 1422.95C2064.04 1421.53 2022.32 1394.96 2002.64 1354.17C1983.67 1315.04 1982.96 1255.51 2030.85 1237.96C2056.69 1228.47 2084.66 1235.35 2108.84 1246.26C2110.5 1246.73 2111.69 1244.6 2110.27 1244.12Z" fill="white"/>
<path d="M1651.08 1449.75C1660.09 1412.04 1654.63 1371.48 1635.9 1337.33C1617.41 1303.42 1586.12 1278.04 1549.61 1265.47C1512.87 1252.9 1473.28 1254.8 1437.72 1269.97C1402.16 1284.92 1372.05 1311.24 1350.48 1342.79C1323.22 1382.63 1309 1429.83 1302.59 1477.26C1302.36 1478.68 1304.73 1478.68 1304.97 1477.26C1315.4 1398.76 1350.48 1319.07 1423.02 1279.7C1456.69 1261.44 1495.56 1254.8 1533.02 1263.33C1570 1271.87 1603.9 1293.69 1625.47 1325C1650.13 1360.81 1658.66 1406.82 1648.71 1449.04C1648.47 1450.7 1650.6 1451.17 1651.08 1449.75Z" fill="white"/>
<path d="M1593.7 1449.27C1605.56 1416.78 1608.4 1379.78 1594.89 1347.29C1584.22 1321.44 1563.36 1299.38 1537.05 1289.66C1473.99 1266.42 1411.4 1321.2 1382.01 1371.96C1363.75 1403.5 1353.56 1439.31 1353.09 1475.6C1353.09 1477.02 1355.46 1477.02 1355.46 1475.6C1356.64 1414.65 1385.09 1353.69 1433.21 1315.75C1458.34 1296.06 1491.06 1282.07 1523.3 1288.24C1551.51 1293.45 1575.21 1313.85 1588.49 1338.75C1606.51 1372.67 1604.37 1413.46 1591.57 1448.56C1591.1 1449.99 1593.23 1450.7 1593.7 1449.27Z" fill="white"/>
<path d="M1552.46 1456.86C1561.7 1433.62 1567.39 1407.53 1559.81 1382.87C1553.17 1361.76 1537.52 1345.39 1515.95 1339.7C1471.62 1328.08 1421.6 1352.04 1395.52 1387.61C1379.64 1409.43 1371.1 1436.23 1371.34 1463.03C1371.34 1464.45 1373.71 1464.45 1373.71 1463.03C1373.24 1417.26 1398.6 1374.33 1439.14 1353.22C1477.31 1333.3 1536.34 1330.45 1555.3 1377.41C1565.73 1403.03 1560.04 1431.25 1550.09 1456.15C1549.61 1457.58 1551.75 1458.29 1552.46 1456.86Z" fill="white"/>
<path d="M1447.91 892.401C1431.79 882.44 1410.22 882.914 1393.86 892.638C1378.69 901.651 1373.24 917.778 1382.48 933.194C1392.91 950.745 1414.72 962.366 1435.11 962.603C1449.81 962.841 1464.98 955.014 1471.15 941.258C1480.39 920.862 1463.8 902.837 1447.91 892.401C1446.73 891.453 1445.54 893.587 1446.73 894.536C1460.48 903.548 1475.89 918.727 1470.2 936.989C1466.17 949.796 1453.6 958.334 1440.8 959.995C1422.31 962.366 1402.4 953.117 1390.07 939.598C1384.38 933.432 1379.4 925.131 1379.88 916.355C1380.11 908.292 1385.09 901.414 1391.49 896.907C1407.14 885.523 1430.13 884.337 1446.49 894.536C1447.91 895.247 1449.1 893.113 1447.91 892.401Z" fill="white"/>
<path d="M1052.73 359.245C1062.45 347.623 1065.29 330.31 1066.95 315.843C1069.09 296.158 1067.43 276.473 1062.21 257.499C1051.54 217.892 1029.5 180.182 1004.84 147.927C962.172 92.1922 898.639 44.9956 827.283 36.4575C810.215 34.323 792.672 36.9318 779.397 48.5531C766.358 59.9372 759.958 77.2506 757.587 94.0896C752.609 128.479 761.38 164.292 775.367 195.598C802.155 255.602 850.753 307.542 905.751 343.117C928.983 358.059 954.586 370.866 981.848 376.558C1002 380.59 1024.76 380.59 1042.54 368.494C1046.09 365.885 1049.65 362.802 1052.73 359.245C1053.68 358.059 1052.02 356.399 1051.07 357.584C1018.83 393.871 960.75 371.577 925.664 352.367C871.377 322.483 823.727 276.235 792.198 222.872C775.367 194.649 763.277 163.343 759.721 130.376C756.165 95.9869 762.802 47.8416 803.34 39.3035C819.934 35.746 837.714 39.7779 853.834 44.2841C870.192 48.7903 886.075 54.9567 901.247 62.5461C932.539 78.4364 960.513 100.493 983.982 126.582C1009.58 154.568 1030.45 187.06 1046.33 221.687C1063.16 257.973 1071.22 298.055 1060.55 337.188C1058.66 344.303 1055.81 351.655 1051.07 357.584C1050.12 358.77 1051.78 360.431 1052.73 359.245Z" fill="white"/>
<path d="M977.342 294.972C983.268 286.671 984.454 275.05 985.165 265.088C986.113 252.044 984.928 239 981.846 226.193C974.971 198.918 960.747 172.355 944.39 149.587C918.313 112.826 878.724 78.6735 832.259 72.7442C822.066 71.5584 811.635 72.9814 803.812 80.0965C795.278 87.6859 791.485 99.3072 789.825 110.217C786.506 133.934 792.196 159.074 800.967 180.893C817.799 222.398 848.617 259.634 885.361 285.248C909.068 301.85 954.347 325.329 977.342 294.972C978.29 293.786 976.156 292.6 975.208 293.786C955.769 319.4 917.365 302.561 895.792 289.28C860.707 267.697 831.074 234.968 811.872 198.681C801.204 178.522 793.618 156.465 791.722 133.46C789.825 111.403 793.855 77.7248 821.592 74.8787C831.785 73.9301 842.69 76.7761 852.41 80.0965C862.84 83.4168 872.56 88.1602 882.043 93.6151C901.482 105.236 918.313 120.652 932.537 137.966C950.791 160.497 965.963 186.823 975.682 214.097C980.661 228.327 983.505 243.032 983.268 258.211C983.031 269.832 982.32 284.062 975.445 293.786C974.497 294.972 976.393 296.158 977.342 294.972Z" fill="white"/>
<path d="M883.228 258.685C893.422 275.998 914.283 283.825 933.485 278.844C952.925 274.101 963.829 257.262 962.881 237.577C961.933 216.706 949.606 194.175 930.641 184.688C915.943 177.099 898.4 180.894 886.547 192.041C867.345 210.065 871.612 237.577 883.228 258.685C883.939 260.108 886.073 258.922 885.362 257.499C875.405 239.712 870.427 216.943 883.465 199.156C892.237 187.06 908.594 179.945 923.292 184.214C957.429 194.175 979.002 256.788 940.123 274.338C920.684 283.114 896.504 275.998 885.599 257.499C884.414 256.076 882.517 257.262 883.228 258.685Z" fill="white"/>
<path d="M1675.97 1424.61C1679.29 1417.97 1681.66 1410.62 1683.55 1403.5C1689.01 1383.82 1691.38 1363.18 1691.85 1342.55C1692.33 1326.9 1691.61 1311.24 1689.95 1295.83C1688.3 1279.94 1686.4 1263.33 1681.42 1248.16C1673.12 1222.78 1655.34 1201.67 1634.24 1186.02C1588.49 1151.86 1527.57 1140.72 1473.52 1159.69C1445.78 1169.41 1420.41 1186.25 1400.98 1208.55C1381.54 1230.84 1368.5 1258.35 1347.16 1279.22C1335.78 1290.61 1322.51 1297.25 1307.57 1302.94C1295.48 1307.68 1282.68 1312.19 1273.2 1321.44C1250.68 1343.5 1258.97 1378.12 1272.96 1402.08C1277.23 1409.67 1282.21 1416.78 1287.18 1423.9C1288.13 1425.08 1290.03 1423.9 1289.32 1422.71C1271.78 1397.33 1249.02 1361.76 1268.46 1330.93C1276.28 1318.36 1290.03 1312.19 1303.07 1306.97C1315.4 1302.23 1327.96 1297.49 1338.63 1289.42C1359.96 1273.29 1373.48 1249.1 1388.65 1227.52C1405.95 1203.33 1427.53 1183.41 1454.08 1170.13C1506.23 1144.04 1567.16 1148.07 1617.18 1177.48C1640.41 1191.23 1661.27 1210.68 1673.36 1235.35C1679.76 1248.63 1682.61 1262.62 1684.74 1277.09C1687.35 1293.45 1688.77 1309.82 1689.24 1326.18C1689.72 1350.61 1687.82 1375.04 1681.89 1398.76C1679.76 1407.06 1677.39 1415.6 1673.6 1423.19C1673.36 1424.85 1675.26 1426.03 1675.97 1424.61Z" fill="white"/>
<path d="M225.855 692.468C263.074 756.741 314.042 812.475 374.256 856.114C434.944 899.991 504.877 931.534 578.13 946.95C614.4 954.54 652.805 959.52 690.023 957.86C708.277 957.148 726.531 954.302 743.6 947.425C758.772 941.258 771.573 931.771 782.952 920.15C824.201 877.934 841.506 818.642 852.174 762.195C857.627 733.972 861.42 705.512 865.45 677.052C869.006 653.809 872.325 630.329 879.674 607.798C885.126 591.434 892.712 576.966 908.358 568.665C923.53 560.602 940.836 557.044 957.904 554.435C997.968 548.269 1039.22 547.557 1078.33 535.936C1097.3 530.244 1115.31 521.943 1130.96 509.61C1147.79 496.092 1160.12 478.067 1168.18 458.145C1179.32 430.159 1182.4 399.327 1181.93 369.443C1181.45 329.836 1173.16 290.466 1159.41 253.467C1131.2 176.862 1082.12 109.743 1030.68 47.1303C1017.88 31.4771 1004.61 15.824 991.33 0.40796C990.382 -0.777886 988.722 0.882299 989.671 2.06814C1042.77 63.9693 1095.64 127.768 1133.33 200.579C1168.42 268.172 1189.28 346.675 1175.53 422.806C1171.02 447.235 1162.49 471.189 1146.61 490.637C1133.8 506.527 1116.97 518.148 1098.25 526.212C1060.79 542.34 1019.07 544.711 979.003 549.217C961.46 551.352 943.68 553.487 926.612 558.941C912.862 563.21 898.638 569.377 889.867 581.472C878.962 596.414 874.458 615.862 870.665 633.65C865.45 658.552 862.131 684.167 858.575 709.307C850.278 766.702 840.321 826.468 811.637 877.697C796.702 904.26 775.603 930.586 747.393 943.63C712.307 959.757 671.533 957.148 634.077 953.354C559.876 945.764 488.046 922.522 423.328 885.523C358.373 848.288 301.004 797.534 256.91 736.818C246.479 722.351 236.76 707.409 227.751 691.756C227.277 690.096 225.144 691.282 225.855 692.468Z" fill="white"/>
<path d="M212.105 603.766C234.152 649.303 267.104 690.333 300.53 728.043C345.572 778.323 396.54 824.097 453.909 859.672C508.908 893.824 572.441 919.439 638.344 917.541C670.585 916.593 702.351 908.766 731.51 894.536C754.505 883.152 771.336 866.787 782.715 843.544C794.568 819.59 799.784 792.79 802.865 766.464C806.421 735.87 807.133 705.038 806.896 674.206C806.896 644.797 806.184 615.625 806.896 586.216C807.607 563.448 808.318 539.494 815.667 517.674C821.356 501.072 832.024 490.874 847.907 483.996C864.976 476.407 883.704 473.086 902.195 470.24C945.577 463.837 989.908 462.176 1032.11 449.132C1051.78 442.966 1070.75 434.191 1086.63 420.909C1103.22 406.916 1115.08 388.18 1121.71 367.546C1130.96 338.848 1130.96 307.542 1127.64 277.896C1122.9 234.731 1111.52 191.566 1090.66 153.382C1080.47 134.409 1067.66 116.858 1052.73 101.442C1051.78 100.256 1049.88 101.916 1051.07 103.102C1083.31 136.543 1103.7 178.996 1115.31 223.584C1124.56 259.16 1129.77 297.344 1125.98 334.342C1123.37 359.008 1116.03 383.436 1100.62 403.358C1087.81 419.723 1070.51 431.582 1051.78 439.883C1011.72 457.433 966.676 460.279 924.005 465.497C904.565 467.869 885.126 470.24 866.398 475.458C851.7 479.49 835.817 485.419 825.149 496.566C813.296 509.136 809.74 528.109 807.607 544.711C804.051 570.563 804.288 596.651 804.288 622.74C804.525 681.795 807.844 742.748 794.805 800.854C789.353 825.282 780.345 849.948 763.276 868.922C743.6 890.741 713.019 902.362 685.045 909.24C621.038 925.131 554.424 909.477 496.106 881.017C435.181 851.134 381.131 807.969 333.244 760.061C293.418 720.216 256.436 676.34 227.277 627.958C222.536 619.894 217.795 611.593 213.765 603.292C213.528 601.158 211.394 602.343 212.105 603.766Z" fill="white"/>
<path d="M259.045 585.978C286.781 650.726 331.823 707.883 388.481 750.099C443.48 791.13 518.865 820.776 586.191 792.79C642.375 769.31 677.223 712.39 690.499 654.995C708.278 578.389 687.654 499.412 668.689 425.178C648.539 347.149 626.966 264.14 646.642 183.739C649.013 174.016 651.858 164.529 655.414 155.279C655.888 153.856 653.754 153.145 653.043 154.568C625.781 226.667 637.16 305.644 654.465 378.455C673.193 456.958 700.455 536.647 693.818 618.471C688.839 678.712 661.34 742.747 609.66 777.137C548.261 818.167 471.216 799.668 412.424 763.144C352.685 725.908 303.85 670.411 272.083 608.035C268.053 600.209 264.497 592.382 261.178 584.555C260.704 583.37 258.571 584.555 259.045 585.978Z" fill="white"/>
<path d="M677.928 185.637C727.475 215.52 762.56 262.717 797.882 307.305C831.545 349.758 868.764 394.109 919.495 416.64C964.063 436.562 1020.01 439.171 1060.07 407.864C1096.58 379.404 1110.8 330.31 1108.43 285.485C1105.12 221.687 1068.84 165.24 1035.66 112.826C1034.94 111.64 1032.81 112.826 1033.52 114.012C1063.63 161.446 1095.16 211.014 1104.17 267.46C1111.28 312.285 1101.56 363.751 1068.84 396.955C1031.15 435.139 972.834 435.85 925.659 416.64C875.165 396.006 837.946 353.553 804.52 312.048C767.064 265.326 731.268 215.046 679.114 183.502C677.928 182.791 676.743 184.688 677.928 185.637Z" fill="white"/>
<path d="M629.576 663.77C642.14 648.829 645.459 626.535 647.592 608.036C650.2 582.421 647.829 557.044 640.717 532.379C633.369 506.527 621.752 482.099 608.714 458.619C596.624 436.799 583.111 415.691 567.939 396.006C539.255 359.008 504.644 326.279 464.58 301.613C428.309 279.082 385.638 261.294 342.73 257.025C320.92 254.891 298.636 259.16 282.516 275.287C267.344 290.229 260.232 311.337 257.387 332.208C251.935 375.847 263.314 421.146 281.331 460.753C315.705 535.462 376.156 599.972 444.904 644.085C474.3 662.822 506.54 678.949 540.914 685.827C566.043 690.808 594.49 690.57 616.3 675.629C621.278 672.071 625.783 668.039 629.576 663.77C630.524 662.584 628.864 660.924 627.916 662.11C587.378 707.884 514.126 679.898 469.795 655.944C400.81 618.471 340.596 559.89 300.77 492.297C279.671 456.959 264.499 417.826 259.758 376.796C255.017 334.105 262.128 273.864 311.912 261.057C333.247 255.602 356.242 260.583 376.867 266.038C397.491 271.492 417.404 279.082 436.369 288.569C476.196 308.491 511.518 336.24 541.625 368.732C574.34 404.307 600.891 445.337 621.278 488.977C642.851 535.225 653.519 586.216 639.769 636.496C637.162 645.508 633.843 654.758 627.679 662.11C626.968 663.296 628.627 664.956 629.576 663.77Z" fill="white"/>
<path d="M603.972 630.329C610.846 620.605 612.269 607.087 612.98 595.465C614.165 579.812 612.743 564.396 608.95 549.455C600.89 517.674 584.295 487.079 565.567 460.516C534.986 417.351 488.996 377.744 434.709 370.392C422.619 368.732 410.054 370.392 400.809 378.93C390.852 387.942 386.348 401.461 384.452 414.505C380.659 442.491 387.296 471.9 397.964 497.752C417.877 545.897 453.437 588.825 495.871 618.708C512.94 630.804 532.379 641.476 553.003 645.745C567.701 648.828 583.821 648.117 596.149 638.63C599.23 636.021 601.601 633.175 603.972 630.329C604.92 629.143 602.786 627.958 601.838 629.143C579.08 659.264 534.275 639.816 508.909 624.163C467.661 598.786 432.812 560.364 410.054 517.674C397.49 493.957 388.719 468.106 386.348 441.305C384.215 415.691 388.719 376.321 420.959 372.526C433.286 371.103 446.325 374.661 457.941 378.456C469.794 382.25 480.936 387.468 491.604 393.872C514.362 407.153 534.038 425.178 550.87 445.575C572.442 471.9 590.222 502.495 601.838 534.513C607.765 551.352 611.32 568.902 611.083 586.69C610.846 600.446 610.135 617.522 601.838 629.143C601.127 630.329 603.023 631.515 603.972 630.329Z" fill="white"/>
<path d="M437.546 505.341C449.163 525.263 473.343 534.276 495.627 529.058C518.622 523.603 531.66 503.918 530.475 480.675C529.29 456.484 515.303 430.395 493.256 419.011C475.951 409.999 455.089 414.268 441.102 427.549C419.056 448.895 424.034 480.912 437.546 505.341C438.258 506.764 440.391 505.578 439.68 504.155C428.064 483.047 422.137 456.247 437.546 435.613C447.977 421.383 467.653 412.845 484.959 418.3C524.549 430.633 549.44 503.444 503.924 523.84C480.929 534.038 452.481 525.975 439.68 504.155C438.732 502.732 436.598 503.918 437.546 505.341Z" fill="white"/>
<path d="M166.35 463.599C245.055 511.033 290.808 593.568 351.733 659.501C380.655 690.807 414.081 719.742 453.907 736.344C491.126 751.76 534.034 757.452 573.15 745.356C648.062 721.876 677.932 638.63 668.923 566.293C663.471 522.417 646.165 480.201 624.83 441.542C601.834 400.038 570.305 363.514 551.103 319.637C529.53 270.543 519.337 210.54 534.272 157.888C534.509 156.939 534.746 156.228 534.983 155.279C535.457 153.856 533.086 153.145 532.612 154.568C528.819 165.715 527.397 177.81 526.211 189.432C523.604 219.078 526.448 249.198 534.034 278.133C539.25 297.581 546.362 316.554 555.37 334.579C566.038 356.161 579.788 375.372 593.3 395.057C619.377 433.241 642.135 474.272 655.885 518.622C667.975 557.518 672.242 598.074 662.76 638.156C653.988 674.917 633.838 709.543 601.123 729.703C564.853 752.234 519.574 753.42 479.273 742.51C436.602 730.889 400.331 704.8 369.276 674.205C306.928 613.016 264.257 533.564 194.561 479.964C185.789 473.323 176.781 467.157 167.536 461.465C166.35 460.99 165.165 462.888 166.35 463.599Z" fill="white"/>
</svg>
